<svg xmlns="http://www.w3.org/2000/svg" viewBox="0 0 360 360"><defs><style>.cls-1{fill:#1c1e2d;}</style></defs><g id="white"><path class="cls-1" d="M285.14,155.48l-6.9,6c-.14-.14-.28-.25-.4-.38a15.06,15.06,0,0,0-9.14-5,12.79,12.79,0,0,0-9.31,2,11.1,11.1,0,0,0-4.88,8.22,11.61,11.61,0,0,0,.73,5.77,10.67,10.67,0,0,0,6.23,6.28,14.28,14.28,0,0,0,11.18-.18,13.68,13.68,0,0,0,5-3.86l.46-.53.13-.08c2.27,2,4.55,3.95,6.89,6-.17.22-.32.42-.48.6a23.93,23.93,0,0,1-29.72,5,19,19,0,0,1-9.68-12.78c-1.34-6.15-.42-11.94,3.45-17.07a21.23,21.23,0,0,1,10.47-7.29,24.61,24.61,0,0,1,21.42,3,21.3,21.3,0,0,1,4,3.68Z"/><path class="cls-1" d="M99.38,187.1h-.75c-3.46,0-6.92,0-10.37,0a1,1,0,0,1-1-.5c-3.12-4.46-6.26-8.89-9.38-13.36a1.56,1.56,0,0,0-1.46-.78c-5.52,0-11,0-16.54,0H59v-7.76l.8,0H80.51a6.8,6.8,0,0,0,2.42-.3,6.71,6.71,0,0,0,1.72-.9,4,4,0,0,0,0-6.31A5.8,5.8,0,0,0,81.29,156c-.32,0-.65,0-1,0H59v-7.77c.17,0,.35,0,.52,0,7.83,0,15.65,0,23.48,0a12.08,12.08,0,0,1,8.8,3.52,11.7,11.7,0,0,1,3.3,6.81,12.48,12.48,0,0,1-1,7,11.24,11.24,0,0,1-6,5.9l-.75.33Z"/><path class="cls-1" d="M127.54,158.73c-2.34,4.88-4.6,9.58-6.87,14.29l-6.75,14.06H104l18.84-39.44h9.54q9.36,19.67,18.73,39.34c-.56.15-8.46.21-9.91.08C136.65,177.69,132.14,168.29,127.54,158.73Z"/><path class="cls-1" d="M291.79,148.22h9.28v15.49c1.34,0,2.61,0,3.88,0h11.46v7.81h-15.3v15.51h-9.29C291.68,186.58,291.64,149.08,291.79,148.22Z"/><path class="cls-1" d="M331.86,148.23v38.83H322.6V148.23Z"/><path class="cls-1" d="M153.76,155.88v-7.67h43.36v7.63C196.6,156,154.78,156,153.76,155.88Z"/><path class="cls-1" d="M237.56,148.22V156H202.87v-7.73Z"/><path class="cls-1" d="M202.87,171.5v-7.67h34.66v7.67Z"/><path class="cls-1" d="M203,187.06v-7.74h34.52v7.74Z"/><path class="cls-1" d="M50.66,187.06H41.32V162.21a92.08,92.08,0,0,1,9.21-.08l.06.05,0,0c0,.23,0,.46,0,.69C50.67,171,50.66,179,50.66,187.06Z"/><path class="cls-1" d="M170.8,162.11H180c.14.53.19,23.77,0,24.95h-9.2C170.7,186.57,170.66,163.18,170.8,162.11Z"/><path class="cls-1" d="M41.37,148.22h9.25V156H41.4A68.3,68.3,0,0,1,41.37,148.22Z"/><path class="cls-1" d="M266.91,163.4c2.76-.06,4.53,2,4.23,4.87s-2.6,4-5.11,3.64c-2.84-.43-3.66-2.72-3.43-4.77A3.93,3.93,0,0,1,266.91,163.4Z"/><path class="cls-1" d="M107.39,216.83V205.48a2.93,2.93,0,0,1,.48-.07c1.47,0,2.94,0,4.41,0a5.71,5.71,0,0,1,.56,11.39C111.06,217,109.26,216.83,107.39,216.83Zm1.34-1.2H112a6.69,6.69,0,0,0,.9-.07,4.45,4.45,0,0,0-.18-8.82c-1.27-.1-2.56,0-3.84,0,0,0-.07.06-.11.09Z"/><path class="cls-1" d="M242.5,216.76l-.13.1c-1.22.14-1.22.14-1.71-1-.25-.58-.5-1.15-.76-1.73,0,0-.05-.07-.12-.15h-6.22l-1,2.21c-.33.77-.21.67-1.08.68-.15,0-.31,0-.53,0a3.9,3.9,0,0,1,.13-.47c1.56-3.49,3.13-7,4.68-10.47a.71.71,0,0,1,.79-.51,7.57,7.57,0,0,0,.84,0Q240,211.08,242.5,216.76Zm-5.82-9.85c-.87,2-1.72,3.83-2.49,5.7a22.34,22.34,0,0,0,5-.08Z"/><path class="cls-1" d="M166,211.33h1.13v1c0,.91,0,1.82,0,2.73a.66.66,0,0,1-.26.61,6.45,6.45,0,0,1-8.74-.84,5.7,5.7,0,0,1,3-9.17,6.63,6.63,0,0,1,6,1.31l-.74,1a5.7,5.7,0,0,0-3.1-1.3,4.54,4.54,0,1,0-.82,9,5.6,5.6,0,0,0,3-.65.79.79,0,0,0,.5-.81c0-.82,0-1.63,0-2.45A2.8,2.8,0,0,1,166,211.33Z"/><path class="cls-1" d="M210.23,206.69H206.5v-1.24h8.73v1.22h-3.7v10.17h-1.3Z"/><path class="cls-1" d="M260.85,205.44h1.25V215.6h5v1.25h-6.25Z"/><path class="cls-1" d="M138,216.86l-.61,0-.6,0V205.45H138Z"/><path class="cls-1" d="M188,216.86h-1.18V205.44H188C188.12,205.92,188.18,215.72,188,216.86Z"/></g></svg>