<?xml version="1.0" encoding="utf-8"?>
<!-- Generator: Adobe Illustrator 23.0.3, SVG Export Plug-In . SVG Version: 6.00 Build 0)  -->
<svg version="1.1" id="Layer_1" xmlns="http://www.w3.org/2000/svg" xmlns:xlink="http://www.w3.org/1999/xlink" x="0px" y="0px"
	 viewBox="0 0 288 288" style="enable-background:new 0 0 288 288;" xml:space="preserve">
<g>
	<path d="M214.27,38.15c10.95,3.41,10.4,13.13,11.64,22.62c-2.08,0.56-4.66,1.26-6.66,1.8c0.14,1.49,0.15,3.37,0.56,5.16
		c0.26,1.12,0.92,2.38,1.79,3.09c2.21,1.8,4.66,3.31,6.99,4.96c3.57,2.52,7.59,4.5,9.66,8.76c0.48,0.99,1.82,1.56,3.21,2.19
		c-1.64-3.21-0.18-4.83,1.85-7.02c2.77-2.97,4.42-6.95,6.84-10.29c1.5-2.06,3.54-3.74,5.78-6.04c-1.21,0.21-1.9,0.23-2.52,0.46
		c-3.28,1.23-6.19,0.78-8.2-2.21c-2.06-3.08-1.95-6.36,0.03-9.5c1.95-3.1,4.82-4.82,8.47-4.45c2.92,0.29,4.47,2.44,5.06,5.22
		c2.54,11.87,2.37,23.65-1.56,35.21c-2.69,7.92-7.61,11.77-14.05,10.9c-2.76-0.37-5.36-1.81-8.09-2.58
		c-6.2-1.75-12.35-4.09-18.68-4.89c-9.75-1.23-18.05,2.66-24.49,10.03c-3.24,3.71-6.09,7.78-8.94,11.8
		c-2.45,3.45-3.44,8.18-8.8,9.25c10.64,0.11,19.21,5.5,28.25,9.29c5.5,2.31,10.71,5.28,14.44,10.3c3.74,5.04,2.19,11.37-3.03,15.17
		c-8.52,6.19-18.2,7.52-28.21,8.16c-8.46,0.54-15.7,4.19-22.57,9.42c-0.64-1.11-1.22-2.12-2.15-3.71
		c-1.72,10.61-11.35,15.6-14.94,24.44c-0.39,0.96-1.56,1.81-2.57,2.28c-1.86,0.87-3.6,0.55-3.3-1.98c1.05-8.7,2.17-17.39,3.5-26.04
		c0.49-3.19,3.16-4.34,6.09-4.36c7.67-0.04,14.23-3.17,20.97-6.41c5.23-2.51,11.13-3.65,16.75-5.32c1.33-0.4,2.75-0.5,4.45-0.79
		c0.32,0.95,0.66,1.95,1.12,3.32c4.28-2.38,8.5-4.71,13.19-7.32c-4.59-3.58-8.79-6.85-13.43-10.46c-0.2,1.61-0.33,2.69-0.5,4.01
		c-5.03,1.16-10.07,2.73-15.23,3.43c-17.29,2.35-29.75,11.97-40.22,25.25c-3.99,5.06-8.89,9.54-13.94,13.57
		c-3.91,3.12-8.7,5.14-13.16,7.22c-1.25,1.34-2.28,3.01-3.78,3.95c-14.36,9.09-27.59,19.54-39.18,32.01
		c-1.09,1.17-1.86,2.62-3.34,4.75c5.58-0.67,10.13-1.22,14.69-1.77c6.02-0.73,12.02-1.9,18.06-2.1c21.29-0.73,42.6-1.62,63.89-1.47
		c14.2,0.1,28.41,1.63,42.57,2.96c22.3,2.08,44.26,6.11,65.55,13.27c5.38,1.81,10.6,4.09,15.93,6.17
		c-93.42-15.44-186.64-15.2-280.19-0.88c7.1-2.54,14.09-5.46,21.32-7.53c8.8-2.51,17.8-4.35,26.74-6.37
		c1.88-0.43,2.73-1.03,3.01-3.21c0.52-3.96,0.75-8.1,4.16-11.22c0.89-0.81,0.32-3.21,0.42-4.89c0.28-4.83,2.64-7.5,6.74-7.2
		c1.3,0.1,2.52,1.14,4.49,2.1c10.05-11.42,20.51-23.33,31.02-35.2c1.29-1.46,2.82-2.7,4.19-4.09c3.9-3.95,8.06-7.03,14.39-4.88
		c-1.6-1.49-3.2-2.99-4.69-4.38c6.13-9.17,12.42-18.52,18.63-27.92c0.77-1.16,1.01-2.65,1.64-3.91c2.28-4.6,3.78-9.93,7.1-13.61
		c9.49-10.53,15.54-22.85,20.96-35.68c1.69,0.56,3.5,1.17,5.31,1.78c0.17-0.29,0.33-0.59,0.5-0.88c-3.82-3.35-7.13-7.93-11.57-9.77
		c-7.14-2.96-14.76-0.89-21.94,1.61c-10.11,3.52-15.19,8.93-14.8,16.22c11.83-0.82,23.66-1.63,35.53-2.45
		c-1.71,6.93-2.64,7.69-9.22,7.69c-7.94,0-15.89,0.14-23.83-0.07c-2.76-0.07-3.77,0.85-4.41,3.44c-1.23,4.97-4.18,7.5-8.12,7.65
		c-5.77,0.21-9.45-4.86-7.25-10.19c1.98-4.8,5.24-8.27,11.06-8.61c-0.02-0.35-0.04-0.7-0.05-1.04c-1.12-0.57-2.24-1.14-4.16-2.12
		c5.85-7.43,11.42-15.06,17.61-22.17c3.57-4.1,8.92-6.05,14.26-5.82c9.02,0.38,17.99,1.74,27.01,2.45
		c5.43,0.42,10.9,0.39,16.35,0.55c4.39,0.13,9.14-1.29,12.66,3.45c-3.93-11.11-2.19-19.64,9.05-24.56
		C210.11,38.15,212.19,38.15,214.27,38.15z"/>
	<path d="M138.19,117.09c-1.41,2.45-2.52,4.64-3.91,6.62c-0.47,0.67-1.67,1.18-2.54,1.18c-33.2,0.04-66.4,0.01-99.61-0.02
		c-0.11,0-0.22-0.13-0.71-0.44C67.12,121.98,102.44,119.55,138.19,117.09z"/>
	<path d="M126.97,58.92c-2.12,2.37-3.64,4.33-5.45,5.97c-0.84,0.77-2.23,1.31-3.38,1.31c-29.91,0.06-59.82,0.04-89.73,0.02
		c-0.24,0-0.48-0.15-1.07-0.34c4.2-0.41,8.06-0.89,11.93-1.14c9.68-0.61,19.38-1.03,29.06-1.66c15.35-0.99,30.7-2.07,46.04-3.14
		C118.47,59.67,122.56,59.29,126.97,58.92z"/>
	<path d="M51.17,157.15c20.77-2.53,41.54-5.07,63.15-7.71c-1.91,2.84-3.13,4.94-4.66,6.8c-0.63,0.76-1.91,1.39-2.9,1.4
		c-18.56,0.08-37.11,0.06-55.67,0.06C51.11,157.51,51.14,157.33,51.17,157.15z"/>
	<path d="M28.41,189.2c20.79-2.54,41.59-5.08,63.21-7.73c-1.83,2.75-3.05,4.85-4.56,6.71c-0.63,0.78-1.89,1.48-2.86,1.49
		c-18.56,0.09-37.12,0.06-55.68,0.06C28.49,189.56,28.45,189.38,28.41,189.2z"/>
	<path d="M103.02,92.23c-1.3,0.98-2.59,2.81-3.9,2.83c-15.47,0.2-30.94,0.13-46.43-0.34c16.6-1.14,33.2-2.28,49.81-3.42
		C102.68,91.6,102.85,91.91,103.02,92.23z"/>
</g>
</svg>
